<?xml version="1.0" encoding="UTF-8"?>
<!DOCTYPE svg PUBLIC "-//W3C//DTD SVG 1.1//EN" "http://www.w3.org/Graphics/SVG/1.1/DTD/svg11.dtd">
<!-- Creator: CorelDRAW 2019 (64 Bit) -->
<svg xmlns="http://www.w3.org/2000/svg" xml:space="preserve" width="900mm" height="500mm" version="1.1" style="shape-rendering:geometricPrecision; text-rendering:geometricPrecision; image-rendering:optimizeQuality; fill-rule:evenodd; clip-rule:evenodd"
viewBox="0 0 90000 50000"
 xmlns:xlink="http://www.w3.org/1999/xlink">
 <defs>
  <style type="text/css">
   <![CDATA[
    .fil0 {fill:#006CB5}
    .fil1 {fill:#A5CE46;fill-rule:nonzero}
    .fil2 {fill:#A5CE46;fill-rule:nonzero}
   ]]>
  </style>
 </defs>
 <g id="Camada_x0020_1">
  <metadata id="CorelCorpID_0Corel-Layer"/>
  <rect class="fil0" x="22499.67" y="2502.07" width="45000" height="45000" rx="999.99" ry="999.99"/>
  <g id="_2458541729088">
   <g>
    <path class="fil1" d="M37543.15 13472.58c1265.48,-730.63 2883.66,-297.05 3614.29,968.43 730.63,1265.48 297.05,2883.66 -968.43,3614.29l-2645.86 -4582.72zm-875.82 8104.37l-4582.72 -2645.82 0.01 -0.02 124.38 -211.39 127.69 -209.08 130.99 -206.79 134.27 -204.45 137.52 -202.1 140.69 -199.64 143.78 -197.1 146.93 -194.65 150.07 -192.19 153.09 -189.58 156.05 -186.92 159.11 -184.39 162 -181.64 164.9 -178.95 167.86 -176.27 170.62 -173.43 173.47 -170.65 176.21 -167.79 178.97 -164.95 181.69 -162.02 184.31 -159.06 186.99 -156.1 189.55 -153.06 192.15 -150.05 194.68 -146.95 197.13 -143.8 199.65 -140.7 202.07 -137.49 204.42 -134.25 206.81 -131.01 209.12 -127.71 211.36 -124.37 2645.86 4582.72 -136.44 80.27 -134.92 82.39 -133.39 84.51 -131.92 86.63 -130.33 88.69 -128.77 90.74 -127.23 92.82 -125.58 94.79 -123.93 96.77 -122.33 98.78 -120.61 100.7 -118.95 102.64 -117.19 104.52 -115.45 106.39 -113.73 108.29 -111.89 110.09 -110.12 111.93 -108.22 113.65 -106.42 115.49 -104.56 117.22 -102.59 118.89 -100.75 120.68 -98.75 122.28 -96.75 123.91 -94.81 125.61 -92.84 127.26 -90.75 128.76 -88.66 130.3 -86.61 131.89 -84.53 133.43 -82.41 134.94 -80.26 136.41 0.01 -0.02zm3521.67 13143.02l-2645.84 4582.72 0 0 -652.58 -399.09 -626.29 -427.97 -598.9 -455.25 -570.83 -481.1 -542.25 -505.55 -513.15 -528.63 -483.55 -550.28 -453.59 -570.58 -423.2 -589.53 -392.45 -607.08 -361.4 -623.38 -330.03 -638.39 -298.34 -652.13 -266.33 -664.58 -234.04 -675.85 -201.43 -685.89 -168.5 -694.72 -135.24 -702.31 -101.65 -708.73 -67.68 -713.91 -33.4 -717.85 1.29 -720.6 36.34 -722.01 71.75 -722.11 107.51 -720.91 143.64 -718.37 180.09 -714.36 216.81 -708.94 253.82 -702.06 291.02 -693.68 328.39 -683.8 365.62 -671.92 4582.72 2645.82 -238 437.44 -212.53 442.6 -187.78 447.68 -163.42 452.14 -139.43 456 -115.73 459.22 -92.3 461.73 -69.11 463.61 -46.15 464.73 -23.38 465.05 -0.81 464.56 21.56 463.29 43.74 461.15 65.71 458.09 87.46 454.21 109 449.38 130.29 443.67 151.36 437.07 172.15 429.6 192.68 421.21 212.97 411.99 233 401.94 252.79 391.08 272.3 379.37 291.65 366.92 310.83 353.76 329.81 339.81 348.75 325.19 367.61 309.86 386.44 293.79 405.37 277.05 424.84 259.83 0 0zm13143 -3521.66l4582.72 2645.84 0 0 -399.09 652.58 -427.97 626.29 -455.25 598.9 -481.11 570.84 -505.54 542.23 -528.62 513.15 -550.3 483.57 -570.57 453.57 -589.51 423.2 -607.1 392.46 -623.4 361.41 -638.37 330.01 -652.11 298.34 -664.62 266.34 -675.83 234.03 -685.87 201.44 -694.73 168.5 -702.33 135.24 -708.72 101.64 -713.9 67.69 -717.88 33.39 -720.58 -1.29 -721.98 -36.34 -722.13 -71.74 -720.94 -107.52 -718.33 -143.64 -714.36 -180.07 -708.95 -216.82 -702.06 -253.82 -693.69 -291.02 -683.81 -328.41 -671.91 -365.61 2645.84 -4582.72 437.43 238.01 442.61 212.53 447.67 187.78 452.14 163.42 455.99 139.42 459.2 115.73 461.77 92.3 463.6 69.12 464.71 46.14 465.06 23.38 464.58 0.81 463.28 -21.55 461.14 -43.75 458.12 -65.7 454.17 -87.46 449.37 -109 443.69 -130.3 437.09 -151.35 429.56 -172.14 421.23 -192.7 412.01 -212.97 401.92 -232.99 391.06 -252.78 379.39 -272.32 366.93 -291.65 353.74 -310.81 339.82 -329.83 325.2 -348.75 309.85 -367.6 293.79 -386.44 277.05 -405.37 259.83 -424.84 0 0zm-3521.66 -13143.01l2645.84 -4582.72 652.58 399.09 626.29 427.97 598.9 455.25 570.84 481.11 542.23 505.54 513.15 528.62 483.57 550.3 453.57 570.57 423.2 589.51 392.46 607.1 361.41 623.4 330.01 638.37 298.34 652.11 266.34 664.62 234.03 675.83 201.44 685.87 168.5 694.74 135.24 702.33 101.64 708.71 67.69 713.91 33.39 717.87 -1.29 720.58 -36.34 721.99 -71.74 722.13 -107.52 720.94 -143.64 718.32 -180.07 714.36 -216.82 708.96 -253.82 702.06 -291.03 693.7 -328.4 683.79 -365.61 671.92 -4582.72 -2645.84 238.01 -437.44 212.54 -442.61 187.77 -447.66 163.42 -452.14 139.42 -455.98 115.73 -459.22 92.3 -461.78 69.12 -463.58 46.14 -464.71 23.38 -465.07 0.81 -464.58 -21.55 -463.27 -43.75 -461.15 -65.7 -458.11 -87.46 -454.19 -109 -449.36 -130.3 -443.69 -151.35 -437.09 -172.14 -429.56 -192.7 -421.23 -212.97 -412.01 -232.99 -401.92 -252.78 -391.06 -272.32 -379.39 -291.65 -366.93 -310.81 -353.74 -329.83 -339.82 -348.75 -325.2 -367.6 -309.85 -386.44 -293.79 -405.37 -277.05 -424.84 -259.83zm0 0c-1265.48,-730.62 -1699.06,-2348.8 -968.44,-3614.28 730.62,-1265.48 2348.8,-1699.06 3614.28,-968.44l-2645.84 4582.72z"/>
   </g>
   <path class="fil2" d="M42859.05 26513.79c0,958.96 164.63,1670.99 493.89,2136.06 329.26,465.08 831.38,699.68 1506.36,699.68 674.98,0 1177.1,-234.6 1506.36,-699.68 329.26,-465.07 493.89,-1177.1 493.89,-2136.06l0 -12322.53c0,-954.85 -164.63,-1666.88 -493.89,-2140.19 -329.26,-469.19 -831.38,-703.79 -1506.36,-703.79 -674.98,0 -1177.1,234.6 -1506.36,703.79 -329.26,473.31 -493.89,1185.34 -493.89,2140.19l0 12322.53z"/>
  </g>
 </g>
</svg>
