<?xml version="1.0" encoding="UTF-8"?>
<!DOCTYPE svg PUBLIC "-//W3C//DTD SVG 1.1//EN" "http://www.w3.org/Graphics/SVG/1.1/DTD/svg11.dtd">
<!-- Creator: CorelDRAW 2019 (64 Bit) -->
<svg xmlns="http://www.w3.org/2000/svg" xml:space="preserve" width="2100mm" height="600mm" version="1.1" style="shape-rendering:geometricPrecision; text-rendering:geometricPrecision; image-rendering:optimizeQuality; fill-rule:evenodd; clip-rule:evenodd"
viewBox="0 0 210000 60000"
 xmlns:xlink="http://www.w3.org/1999/xlink">
 <defs>
  <style type="text/css">
   <![CDATA[
    .fil4 {fill:#FEFEFE}
    .fil0 {fill:#0067B3}
    .fil1 {fill:#FEFEFE;fill-rule:nonzero}
    .fil2 {fill:#A5CE46;fill-rule:nonzero}
    .fil3 {fill:#A5CE46;fill-rule:nonzero}
   ]]>
  </style>
 </defs>
 <g id="Camada_x0020_1">
  <metadata id="CorelCorpID_0Corel-Layer"/>
  <path class="fil0" d="M33706.57 8131.31l146485.46 0c11758.09,0 21378.31,9620.27 21378.31,21378.34l0 0c0,11758.07 -9620.22,21378.34 -21378.31,21378.34l-146485.46 0c-11758.09,0 -21378.31,-9620.27 -21378.31,-21378.34l0 0c0,-11758.07 9620.22,-21378.34 21378.31,-21378.34z"/>
  <path class="fil1" d="M34918.37 38999.21c0,1506.95 -258.7,2625.84 -776.11,3356.68 -517.41,730.84 -1306.45,1099.49 -2367.14,1099.49 -1060.68,0 -1849.73,-368.65 -2367.14,-1099.49 -517.4,-730.84 -776.11,-1849.73 -776.11,-3356.68l0 -19363.98c0,-1500.48 258.71,-2619.37 776.11,-3363.14 517.41,-737.31 1306.46,-1105.96 2367.14,-1105.96 1060.69,0 1849.73,368.65 2367.14,1105.96 517.41,743.77 776.11,1862.66 776.11,3363.14l0 19363.98zm11324.76 0c0,1506.95 -258.7,2625.84 -776.11,3356.68 -517.41,730.84 -1306.45,1099.49 -2367.14,1099.49 -1060.68,0 -1849.73,-368.65 -2367.14,-1099.49 -517.41,-730.84 -776.11,-1849.73 -776.11,-3356.68l0 -19590.34c0,-1416.4 239.3,-2470.62 717.9,-3162.65 478.6,-692.04 1215.91,-1041.29 2198.98,-1041.29 627.36,0 1202.98,155.23 1713.92,465.67 510.94,303.98 1047.75,827.85 1616.9,1558.69l11602.86 15328.2 0 -12922.26c0,-1500.48 258.7,-2619.37 776.11,-3363.14 517.41,-737.31 1306.45,-1105.96 2367.14,-1105.96 1060.68,0 1849.73,368.65 2367.14,1105.96 517.4,743.77 776.11,1862.66 776.11,3363.14l0 20068.95c0,1332.32 -232.84,2315.39 -698.5,2955.69 -472.14,633.82 -1196.51,950.73 -2179.58,950.73 -659.7,0 -1267.65,-181.09 -1836.8,-543.28 -569.15,-368.65 -1157.7,-944.26 -1759.18,-1733.31l-11376.5 -15030.69 0 12695.89zm34142.43 -23483.83c1487.54,0 2606.44,245.77 3350.21,730.84 743.77,485.06 1118.89,1228.84 1118.89,2224.85 0,976.6 -368.65,1700.97 -1105.95,2186.04 -737.31,478.61 -1862.67,717.91 -3363.15,717.91l-5115.87 0 0 4928.3 4417.37 0c1500.48,0 2619.37,239.3 3363.15,717.91 737.3,485.07 1105.95,1215.9 1105.95,2198.98 0,989.54 -368.65,1720.38 -1105.95,2192.51 -743.78,472.14 -1862.67,711.44 -3363.15,711.44l-4417.37 0 0 6875.05c0,1506.95 -258.7,2625.84 -776.11,3356.68 -517.41,730.84 -1306.45,1099.49 -2367.14,1099.49 -1060.68,0 -1849.73,-368.65 -2367.14,-1099.49 -517.41,-730.84 -776.11,-1849.73 -776.11,-3356.68l0 -19066.47c0,-1681.57 323.38,-2839.27 963.67,-3466.63 646.76,-633.82 1772.12,-950.73 3369.62,-950.73l7069.08 0z"/>
  <g>
   <path class="fil2" d="M107316.8 19978.53c-1265.48,-730.63 -1699.06,-2348.81 -968.43,-3614.29 730.63,-1265.48 2348.81,-1699.06 3614.29,-968.43l-2645.86 4582.72zm8104.4 875.83l-4582.72 2645.82 0.01 0.02 -80.26 -136.41 -82.41 -134.94 -84.53 -133.43 -86.61 -131.89 -88.66 -130.3 -90.75 -128.76 -92.84 -127.26 -94.81 -125.61 -96.75 -123.91 -98.75 -122.28 -100.75 -120.68 -102.59 -118.89 -104.56 -117.22 -106.42 -115.49 -108.22 -113.65 -110.12 -111.93 -111.89 -110.09 -113.73 -108.29 -115.45 -106.39 -117.19 -104.52 -118.95 -102.64 -120.61 -100.7 -122.33 -98.78 -123.93 -96.77 -125.58 -94.79 -127.23 -92.82 -128.77 -90.74 -130.33 -88.69 -131.92 -86.63 -133.39 -84.51 -134.92 -82.39 -136.44 -80.27 2645.86 -4582.72 211.36 124.37 209.12 127.71 206.81 131.01 204.42 134.25 202.07 137.49 199.65 140.7 197.13 143.8 194.68 146.95 192.15 150.05 189.55 153.06 186.99 156.1 184.31 159.06 181.69 162.02 178.97 164.95 176.21 167.79 173.47 170.65 170.62 173.43 167.86 176.27 164.9 178.95 162 181.64 159.11 184.39 156.05 186.92 153.09 189.58 150.07 192.19 146.93 194.65 143.78 197.1 140.69 199.64 137.52 202.1 134.27 204.45 130.99 206.79 127.69 209.08 124.38 211.39 0.01 0.02zm-5458.55 20371.56l-2645.84 -4582.72 0 0 424.84 -259.83 405.37 -277.05 386.44 -293.79 367.61 -309.86 348.75 -325.19 329.81 -339.81 310.83 -353.76 291.65 -366.92 272.3 -379.37 252.79 -391.08 233 -401.94 212.97 -411.99 192.68 -421.21 172.15 -429.6 151.36 -437.07 130.29 -443.67 109 -449.38 87.46 -454.21 65.71 -458.09 43.74 -461.15 21.56 -463.29 -0.81 -464.56 -23.38 -465.05 -46.15 -464.73 -69.11 -463.61 -92.3 -461.73 -115.73 -459.22 -139.43 -456 -163.42 -452.14 -187.78 -447.68 -212.53 -442.6 -238 -437.44 4582.72 -2645.82 365.62 671.92 328.39 683.8 291.02 693.68 253.82 702.06 216.81 708.94 180.09 714.36 143.64 718.37 107.51 720.91 71.75 722.11 36.34 722.01 1.29 720.6 -33.4 717.85 -67.68 713.91 -101.65 708.73 -135.24 702.31 -168.5 694.72 -201.43 685.89 -234.04 675.85 -266.33 664.58 -298.34 652.13 -330.03 638.39 -361.4 623.38 -392.45 607.08 -423.2 589.53 -453.59 570.58 -483.55 550.28 -513.15 528.63 -542.25 505.55 -570.83 481.1 -598.9 455.25 -626.29 427.97 -652.58 399.09 0 0zm-20371.56 -5458.54l4582.72 -2645.84 0 0 259.83 424.84 277.05 405.37 293.79 386.44 309.85 367.6 325.2 348.75 339.82 329.83 353.74 310.81 366.93 291.65 379.39 272.32 391.06 252.78 401.92 232.99 412.01 212.97 421.23 192.7 429.56 172.14 437.09 151.35 443.69 130.3 449.37 109 454.17 87.46 458.12 65.7 461.14 43.75 463.28 21.55 464.58 -0.81 465.06 -23.38 464.71 -46.14 463.6 -69.12 461.77 -92.3 459.2 -115.73 455.99 -139.42 452.14 -163.42 447.67 -187.78 442.61 -212.53 437.43 -238.01 2645.84 4582.72 -671.91 365.61 -683.81 328.41 -693.69 291.02 -702.06 253.82 -708.95 216.82 -714.36 180.07 -718.33 143.64 -720.94 107.52 -722.13 71.74 -721.98 36.34 -720.58 1.29 -717.88 -33.39 -713.9 -67.69 -708.72 -101.64 -702.33 -135.24 -694.73 -168.5 -685.87 -201.44 -675.83 -234.03 -664.62 -266.34 -652.11 -298.34 -638.37 -330.01 -623.4 -361.41 -607.1 -392.46 -589.51 -423.2 -570.57 -453.57 -550.3 -483.57 -528.62 -513.15 -505.54 -542.23 -481.11 -570.84 -455.25 -598.9 -427.97 -626.29 -399.09 -652.58 0 0zm5458.54 -20371.57l2645.84 4582.72 -424.84 259.83 -405.37 277.05 -386.44 293.79 -367.6 309.85 -348.75 325.2 -329.83 339.82 -310.81 353.74 -291.65 366.93 -272.32 379.39 -252.78 391.06 -232.99 401.92 -212.97 412.01 -192.7 421.23 -172.14 429.56 -151.35 437.09 -130.3 443.69 -109 449.36 -87.46 454.19 -65.7 458.11 -43.75 461.15 -21.55 463.27 0.81 464.58 23.38 465.07 46.14 464.71 69.12 463.58 92.3 461.78 115.73 459.22 139.42 455.98 163.42 452.14 187.77 447.66 212.54 442.61 238.01 437.44 -4582.72 2645.84 -365.61 -671.92 -328.4 -683.79 -291.03 -693.7 -253.82 -702.06 -216.82 -708.96 -180.07 -714.36 -143.64 -718.32 -107.52 -720.94 -71.74 -722.13 -36.34 -721.99 -1.29 -720.58 33.39 -717.87 67.69 -713.91 101.64 -708.71 135.24 -702.33 168.5 -694.74 201.44 -685.87 234.03 -675.83 266.34 -664.62 298.34 -652.11 330.01 -638.37 361.41 -623.4 392.46 -607.1 423.2 -589.51 453.57 -570.57 483.57 -550.3 513.15 -528.62 542.23 -505.54 570.84 -481.11 598.9 -455.25 626.29 -427.97 652.58 -399.09zm0 0c1265.48,-730.62 2883.66,-297.04 3614.28,968.44 730.62,1265.48 297.04,2883.66 -968.44,3614.28l-2645.84 -4582.72z"/>
  </g>
  <path class="fil3" d="M104646.76 28437.02c0,958.96 -164.63,1670.99 -493.89,2136.06 -329.26,465.08 -831.38,699.68 -1506.36,699.68 -674.98,0 -1177.1,-234.6 -1506.36,-699.68 -329.26,-465.07 -493.89,-1177.1 -493.89,-2136.06l0 -12322.53c0,-954.85 164.63,-1666.88 493.89,-2140.19 329.26,-469.19 831.38,-703.79 1506.36,-703.79 674.98,0 1177.1,234.6 1506.36,703.79 329.26,473.31 493.89,1185.34 493.89,2140.19l0 12322.53z"/>
  <path class="fil1" d="M137633.2 32180.11l0 6790.97c0,1506.95 -258.7,2625.84 -776.11,3363.15 -517.41,730.84 -1306.45,1099.49 -2367.14,1099.49 -1060.68,0 -1849.73,-368.65 -2367.14,-1099.49 -517.41,-737.31 -776.11,-1856.2 -776.11,-3363.15l0 -19060c0,-1681.57 323.38,-2839.27 963.67,-3466.63 646.76,-633.82 1772.12,-950.73 3369.62,-950.73l4895.97 0c3272.6,0 5846.7,776.11 7715.83,2321.86 1869.14,1545.76 2806.94,3647.73 2806.94,6299.44 0,1966.15 -582.08,3615.38 -1752.72,4934.77 -1170.63,1319.39 -2781.06,2153.71 -4844.23,2509.43l4967.12 5516.86c627.35,692.03 1093.02,1338.79 1403.46,1940.27 303.98,601.49 459.2,1151.24 459.2,1655.71 0,834.32 -284.57,1532.82 -853.72,2101.97 -562.68,569.14 -1274.11,853.72 -2134.3,853.72 -556.22,0 -1086.56,-168.16 -1597.5,-510.94 -510.94,-336.32 -1099.49,-918.4 -1772.12,-1733.32l-7340.72 -9203.38zm0 -4191l2903.95 0c1274.12,0 2263.66,-297.51 2962.16,-892.53 692.03,-595.02 1041.28,-1435.81 1041.28,-2522.36 0,-1047.75 -342.78,-1862.67 -1021.88,-2438.28 -685.56,-575.62 -1655.7,-860.19 -2903.95,-860.19l-2981.56 0 0 6713.36zm23328.61 10988.44c0,1506.95 -258.7,2625.84 -776.11,3356.68 -517.41,730.84 -1306.45,1099.49 -2367.14,1099.49 -1060.68,0 -1849.73,-368.65 -2367.14,-1099.49 -517.4,-730.84 -776.11,-1849.73 -776.11,-3356.68l0 -19363.98c0,-1500.48 258.71,-2619.37 776.11,-3363.14 517.41,-737.31 1306.46,-1105.96 2367.14,-1105.96 1060.69,0 1849.73,368.65 2367.14,1105.96 517.41,743.77 776.11,1862.66 776.11,3363.14l0 19363.98zm10509.84 -9591.44c0,2574.1 614.43,4630.79 1836.8,6176.55 1228.84,1545.75 2852.21,2321.87 4876.57,2321.87 2024.35,0 3647.72,-776.12 4876.56,-2321.87 1222.38,-1545.76 1836.8,-3602.45 1836.8,-6176.55 0,-2664.65 -607.96,-4779.55 -1817.4,-6344.71 -1215.9,-1565.16 -2845.74,-2347.74 -4895.96,-2347.74 -2050.23,0 -3680.06,782.58 -4895.97,2347.74 -1209.44,1565.16 -1817.4,3680.06 -1817.4,6344.71zm-6829.77 -77.61c0,-4359.16 1248.24,-7877.53 3738.26,-10561.58 2496.5,-2684.05 5762.63,-4029.31 9804.88,-4029.31 4055.18,0 7334.25,1345.26 9830.74,4035.77 2502.96,2690.52 3751.2,6208.89 3751.2,10555.12 0,4372.09 -1248.24,7896.93 -3738.27,10574.51 -2496.49,2677.58 -5775.56,4016.38 -9843.67,4016.38 -4068.12,0 -7340.72,-1338.8 -9824.28,-4016.38 -2477.09,-2677.58 -3718.86,-6202.42 -3718.86,-10574.51z"/>
  <ellipse class="fil4" cx="123676.97" cy="27687.55" rx="2963.33" ry="2751.67"/>
 </g>
</svg>
